<svg xmlns="http://www.w3.org/2000/svg" viewBox="0 0 192 192"><defs><style>.cls-1{fill:#1a237e;}.cls-2{fill:#5c6bc0;}.cls-3,.cls-4,.cls-5{fill:#fff;}.cls-3{opacity:0.2;}.cls-4{stroke:#000;stroke-linecap:round;stroke-miterlimit:10;}</style></defs><title>ic_launcherArtboard 1</title><g id="Layer_1" data-name="Layer 1"><path id="тень" class="cls-1" d="M160,19H32A12,12,0,0,0,20,31v1A12,12,0,0,1,32,20H160a12,12,0,0,1,12,12V31A12,12,0,0,0,160,19Z"/><rect id="Фон" class="cls-2" x="20" y="20" width="152" height="152" rx="12" ry="12"/><path id="Блик" class="cls-3" d="M160,172H32a12,12,0,0,1-12-12v1a12,12,0,0,0,12,12H160a12,12,0,0,0,12-12v-1A12,12,0,0,1,160,172Z"/></g><g id="mobile"><rect class="cls-4" x="62" y="29" width="70" height="134" rx="6" ry="6"/><path d="M62,145h70a0,0,0,0,1,0,0v12a6,6,0,0,1-6,6H68a6,6,0,0,1-6-6V145A0,0,0,0,1,62,145Z"/><circle class="cls-2" cx="116.5" cy="128.5" r="11.5"/><polygon class="cls-5" points="113.93 136.33 115.4 121.45 122.56 124.11 113.93 136.33"/></g></svg>